# File created by Blade
# Date/Time:  Wed Apr 08 17:12:12 2015
# Frame Rate: 120.000 fps
#------------------------------------------------------
:FULLY-SPECIFIED
:DEGREES
1261
root 7.310928 39.047285 8.493373 207.581323 -32.200733 -131.500229
Spine -31.983984 9.956063 -3.813137
Head -11.095684 16.189827 21.211344
LeftShoulder -9.111982 24.468487 19.076691
LeftArm 11.346860 41.390108 -73.189202
LeftForeArm 33.394022 -0.000000 41.206023
LeftHand -7.067412 0.000000 -19.659228
LeftHandThumb1 -26.253704 0.000000 33.147579
RightShoulder -52.979774 -57.667850 34.931920
RightArm 36.378847 -29.170208 57.863225
RightForeArm 48.820542 -0.000000 30.357719
RightHand -9.348442 -0.000000 1.721174
RightHandThumb1 -24.326973 -0.000000 -32.862282
LeftUpLeg -95.348791 40.723398 -32.479127
LeftLeg 20.904480 -0.000000 -0.000000
LeftFoot -13.725638 13.187549 -18.351629
LeftToeBase 4.869922 -0.000000 -0.000000
RightUpLeg -29.582198 -8.113852 -32.525713
RightLeg 153.062126 -0.000000 -0.000000
RightFoot 43.156365 15.496659 18.434322
RightToeBase -9.162964 -0.000000 0.000000
1262
root 7.316436 39.049724 8.468027 207.303341 -32.411029 -131.482968
Spine -31.858648 9.888715 -3.774700
Head -11.111365 16.113744 21.210394
LeftShoulder -9.094601 24.420362 19.077674
LeftArm 11.328654 41.347466 -73.159439
LeftForeArm 33.383636 -0.000000 41.062776
LeftHand -7.097857 -0.000000 -19.684845
LeftHandThumb1 -26.253704 0.000000 33.147579
RightShoulder -53.005717 -57.618121 35.021224
RightArm 36.419188 -29.096828 57.719406
RightForeArm 48.774025 -0.000000 30.479520
RightHand -9.399913 0.000000 1.611952
RightHandThumb1 -24.326973 -0.000000 -32.862282
LeftUpLeg -94.967684 40.742420 -32.237614
LeftLeg 20.765846 -0.000000 -0.000000
LeftFoot -13.640195 13.148584 -18.297743
LeftToeBase 4.885024 -0.000000 -0.000000
RightUpLeg -29.582056 -8.197124 -32.595334
RightLeg 153.024622 -0.000000 -0.000000
RightFoot 43.078178 15.397221 18.433525
RightToeBase -9.217001 -0.000000 0.000000
1263
root 7.325470 39.053361 8.446831 207.049505 -32.599680 -131.366647
Spine -31.824602 9.879880 -3.660979
Head -11.100665 16.045882 21.171053
LeftShoulder -9.024265 24.382156 19.128552
LeftArm 11.232003 41.266983 -73.262247
LeftForeArm 33.309171 0.000000 40.854436
LeftHand -6.919795 0.000000 -19.514104
LeftHandThumb1 -26.253704 0.000000 33.147579
RightShoulder -52.997933 -57.603758 35.015724
RightArm 36.473912 -29.050738 57.591167
RightForeArm 48.790842 -0.000000 30.568174
RightHand -9.348710 0.000000 1.486850
RightHandThumb1 -24.326973 -0.000000 -32.862282
LeftUpLeg -94.597408 40.750876 -31.814450
LeftLeg 20.641700 -0.000000 -0.000000
LeftFoot -13.593145 13.228145 -18.257002
LeftToeBase 4.923699 -0.000000 -0.000000
RightUpLeg -29.725283 -8.281054 -32.588706
RightLeg 152.992593 -0.000000 -0.000000
RightFoot 43.124355 15.299922 18.420931
RightToeBase -9.651704 -0.000000 0.000000
1264
root 7.334000 39.051614 8.421505 206.706847 -32.731299 -131.274191
Spine -31.678845 9.895538 -3.572358
Head -11.092734 15.944992 21.168545
LeftShoulder -9.016709 24.384190 19.141173
LeftArm 11.267627 41.219479 -73.248796
LeftForeArm 33.455213 -0.000000 40.745190
LeftHand -7.035014 -0.000000 -19.692168
LeftHandThumb1 -26.253704 0.000000 33.147579
RightShoulder -52.838088 -57.591166 34.866512
RightArm 36.461680 -29.000443 57.572762
RightForeArm 48.763629 -0.000000 30.633329
RightHand -9.389986 -0.000000 1.554925
RightHandThumb1 -24.326973 -0.000000 -32.862282
LeftUpLeg -94.134703 40.858319 -31.380859
LeftLeg 20.522009 -0.000000 -0.000000
LeftFoot -13.601865 13.275241 -18.229423
LeftToeBase 4.956067 -0.000000 -0.000000
RightUpLeg -29.810532 -8.274409 -32.667993
RightLeg 152.983429 -0.000000 -0.000000
RightFoot 42.983692 15.410809 18.054220
RightToeBase -9.597862 -0.000000 0.000000
1265
root 7.342791 39.043448 8.393285 206.234196 -32.864529 -131.198076
Spine -31.355658 9.900407 -3.456371
Head -11.127841 15.882469 21.174371
LeftShoulder -9.025620 24.368659 19.114053
LeftArm 11.283843 41.162136 -73.247077
LeftForeArm 33.318803 0.000000 40.564378
LeftHand -7.037431 -0.000000 -19.548079
LeftHandThumb1 -26.253704 0.000000 33.147579
RightShoulder -52.694464 -57.539327 34.732075
RightArm 36.519316 -28.916202 57.510326
RightForeArm 48.747541 -0.000000 30.649429
RightHand -9.267189 -0.000000 1.492553
RightHandThumb1 -24.326973 -0.000000 -32.862282
LeftUpLeg -93.477349 41.025802 -30.815416
LeftLeg 20.399263 -0.000000 -0.000000
LeftFoot -13.662854 13.336771 -18.189382
LeftToeBase 5.048870 -0.000000 -0.000000
RightUpLeg -29.741578 -8.174257 -32.820514
RightLeg 153.005191 -0.000000 -0.000000
RightFoot 43.253660 15.276211 18.379447
RightToeBase -10.639811 -0.000000 0.000000
1266
root 7.355972 39.034909 8.361647 205.677598 -33.024214 -131.074040
Spine -30.960222 9.898275 -3.277110
Head -11.183854 15.821213 21.175395
LeftShoulder -9.020228 24.334384 19.108523
LeftArm 11.303612 41.143087 -73.263401
LeftForeArm 32.905408 0.000000 40.269357
LeftHand -6.714689 -0.000000 -19.116001
LeftHandThumb1 -26.253704 0.000000 33.147579
RightShoulder -52.632675 -57.500654 34.662570
RightArm 36.653961 -28.783927 57.452791
RightForeArm 48.690921 -0.000000 30.621714
RightHand -9.223134 -0.000000 1.476676
RightHandThumb1 -24.326973 -0.000000 -32.862282
LeftUpLeg -92.715853 41.206817 -30.076805
LeftLeg 20.298415 -0.000000 -0.000000
LeftFoot -13.750132 13.441154 -18.179388
LeftToeBase 5.107305 -0.000000 -0.000000
RightUpLeg -29.635099 -8.058920 -32.921719
RightLeg 153.010782 -0.000000 -0.000000
RightFoot 43.484930 15.310179 18.438540
RightToeBase -11.192299 -0.000000 0.000000
